<svg id="flat" height="512" viewBox="0 0 512 512" width="512" xmlns="http://www.w3.org/2000/svg"><path d="m87.942 343.923-48 120h-16l26.824-152h37.176z" fill="#db8638"/><path d="m159.942 223.923h288v40h-288z" fill="#d1e4ff"/><path d="m159.942 183.923h328v40h-328z" fill="#db8638"/><path d="m447.942 463.923v-16l-48-32-40 24v24z" fill="#c5dafa"/><path d="m359.942 439.923 40-24-96-136h-32v48z" fill="#718799"/><path d="m463.94222 183.92284v-28.17084a61.74 61.74 0 0 0 -31.10838-53.60533h-.00006a80.49553 80.49553 0 0 0 -53.17037-9.51067 80.4955 80.4955 0 0 1 -38.68841-3.03556l-53.0328-17.6776h-56l-56 24v88z" fill="#548aff"/><path d="m310.65218 81.23283a24.00314 24.00314 0 0 1 -10.71 20.02l-4 2.67-41.812 27.87466a24.56289 24.56289 0 0 1 -13.62505 4.12534 24.56292 24.56292 0 0 1 -24.56291-24.56292v-33.43707l29.93994-22.45a37.70855 37.70855 0 0 1 33.57007-5.93 37.30269 37.30269 0 0 1 9.99 4.72l10.5 6.99a24.05318 24.05318 0 0 1 10.71 19.98z" fill="#ffceb6"/><path d="m310.65218 81.23283a24.00314 24.00314 0 0 1 -10.71 20.02l-4 2.67-24-24h-56v-2l29.93994-22.45a37.70855 37.70855 0 0 1 33.57007-5.93 37.30269 37.30269 0 0 1 9.99 4.72l10.5 6.99a24.05318 24.05318 0 0 1 10.71 19.98z" fill="#c47220"/><path d="m215.94222 343.92284h-120a72.00575 72.00575 0 0 1 -72-72v-128a47.99956 47.99956 0 0 1 48 48v40a63.9952 63.9952 0 0 0 64 64h32a48.004 48.004 0 0 1 48 48z" fill="#e0edff"/><path d="m191.942 343.923 24 120h-16l-48-120z" fill="#db8638"/><path d="m351.94222 183.92284h64v-12.82012a43.17988 43.17988 0 0 0 -43.17988-43.17988h-20.82012z" fill="#ffceb6"/><path d="m167.94222 207.92284 48-64 28.28428 28.28429a40 40 0 0 0 28.28427 11.71573h79.43146v-56h-72l-29.23991-33.417a89.556 89.556 0 0 0 -67.39776-30.583h-.00011a89.556 89.556 0 0 0 -84.45044 59.75l-26.91178 76.25v8z" fill="#ffc431"/><path d="m343.942 415.923 48 32v16h-88v-24z" fill="#d1e4ff"/><path d="m343.94222 415.92284-40 24-64-144h-104a63.9952 63.9952 0 0 1 -64-64v-24h96l111.52 34.85a31.97771 31.97771 0 0 1 21.22 21.75z" fill="#8098ab"/><path d="m447.942 223.923h40v240h-40z" fill="#e0edff"/><path d="m447.942 303.923-48-40h48z" fill="#c5dafa"/><path d="m203.94222 114.95227a7.99982 7.99982 0 0 1 7.99982 7.99982v17.94147a7.99983 7.99983 0 0 1 -7.99983 7.99983 7.99982 7.99982 0 0 1 -7.99982-7.99982v-17.94146a7.99983 7.99983 0 0 1 7.99983-7.99984z" fill="#ffb401" transform="matrix(.707 -.707 .707 .707 -33.55 182.848)"/></svg>